<svg width="12" height="12" viewBox="0 0 12 12" fill="none" xmlns="http://www.w3.org/2000/svg"  x="5" y="4">
<g>
<path fill-rule="evenodd" clip-rule="evenodd" d="M0.666667 0C0.298477 0 0 0.298476 0 0.666666V8.62367C0 8.99186 0.298477 9.29033 0.666667 9.29033H5.44056C5.42657 9.16349 5.41939 9.03459 5.41939 8.90402C5.41939 6.97993 6.97917 5.42015 8.90326 5.42015C9.99767 5.42015 10.9742 5.92478 11.6129 6.71405V0.666667C11.6129 0.298477 11.3144 0 10.9462 0H0.666667ZM1.5484 1.54861H3.87098V3.097H1.5484V1.54861ZM10.0646 1.54861H7.74198V3.097H10.0646V1.54861ZM4.64519 3.87153H6.96777V5.41992H4.64519V3.87153ZM3.87098 6.19358H1.5484V7.74197H3.87098V6.19358ZM4.64519 1.54861H6.96777V3.097H4.64519V1.54861ZM3.87098 3.87153H1.5484V5.41992H3.87098V3.87153Z" fill="white"/>
<path fill-rule="evenodd" clip-rule="evenodd" d="M8.90324 12.0002C10.6135 12.0002 12 10.6137 12 8.90342C12 7.19312 10.6135 5.80664 8.90324 5.80664C7.19293 5.80664 5.80646 7.19312 5.80646 8.90342C5.80646 10.6137 7.19293 12.0002 8.90324 12.0002ZM8.38704 10.666L11.3326 7.72038L10.6027 6.99046L8.38704 9.20615L7.20361 8.02272L6.47369 8.75264L8.38704 10.666Z" fill="white"/>
</g>
</svg>
