<svg xmlns="http://www.w3.org/2000/svg" width="12" height="12" viewBox="0 0 12 12" fill="none" x="5" y="4">
    <g>
        <path fill-rule="evenodd" clip-rule="evenodd" d="M3.5 1C3.22386 1 3 1.22363 3 1.5V5.5C3 5.77637 3.22386 6 3.5 6H9.5C9.77614 6 10 5.77637 10 5.5V1.5C10 1.22363 9.77614 1 9.5 1H3.5ZM7 2H5V3H7V2Z" fill="white"/>
        <path fill-rule="evenodd" clip-rule="evenodd" d="M5.5 7C5.22386 7 5 7.22363 5 7.5V11.5C5 11.7764 5.22386 12 5.5 12H11.5C11.7761 12 12 11.7764 12 11.5V7.5C12 7.22363 11.7761 7 11.5 7H5.5ZM9 8H7V9H9V8Z" fill="white"/>
        <path fill-rule="evenodd" clip-rule="evenodd" d="M0.5 7C0.223862 7 0 7.22363 0 7.5V11.5C0 11.7764 0.223862 12 0.5 12H4V9H2V8H4V7H0.5Z" fill="white"/>
    </g>
</svg>
